<?xml version="1.0" standalone="no"?>
<!DOCTYPE svg>
<svg version="1.0" xmlns="http://www.w3.org/2000/svg" width="84.000000pt" height="84.000000pt"
    viewBox="0 0 84.000000 84.000000" preserveAspectRatio="xMidYMid meet">

    <g transform="translate(0.000000,84.000000) scale(0.100000,-0.100000)"
        fill="rgb(186, 138, 73)" stroke="none">
        <path
            d="M450 813 c-162 -40 -173 -44 -202 -73 -32 -33 -36 -74 -14 -138 8
-23 17 -77 19 -122 4 -72 7 -85 36 -120 31 -39 31 -39 10 -51 -15 -7 -18 -14
-11 -21 8 -8 18 -6 35 5 20 13 31 14 61 5 28 -9 45 -9 70 0 30 11 39 10 72
-10 22 -12 40 -23 42 -24 2 -1 -4 -16 -12 -32 -14 -27 -23 -31 -72 -38 -86
-10 -176 2 -193 26 -17 26 -35 26 -28 0 3 -11 -7 -42 -23 -72 -15 -29 -31 -68
-35 -86 -6 -30 -9 -32 -52 -32 l-46 0 7 53 c4 28 19 78 33 110 24 54 24 93 0
55 -10 -15 -13 -8 -23 40 -12 61 -9 79 10 48 40 -67 54 -81 78 -84 14 -2 33 4
42 13 19 19 21 66 4 83 -14 14 -57 16 -78 2 -17 -11 -30 4 -30 37 0 12 -8 37
-19 55 -10 18 -40 73 -66 121 -29 54 -51 85 -56 80 -12 -12 43 -253 65 -284
21 -31 20 -49 -2 -49 -24 0 -52 -31 -52 -58 0 -43 47 -65 91 -41 19 10 20 9 6
-18 -17 -33 -37 -121 -37 -163 l0 -30 340 0 340 0 0 23 c0 41 -21 141 -37 170
-21 42 -35 20 -19 -28 8 -22 17 -61 21 -88 l7 -47 -45 0 c-43 0 -46 2 -52 32
-4 18 -20 57 -36 87 -26 50 -27 55 -14 82 8 15 19 31 25 34 19 12 10 23 -22
30 -18 4 -41 12 -51 17 -18 9 -18 11 2 31 32 35 49 87 49 157 0 37 7 81 16
102 25 59 21 105 -14 139 -22 23 -29 38 -27 61 1 17 -2 32 -8 33 -5 1 -53 -9
-105 -22z m73 -45 c-11 -21 -37 -42 -70 -58 -47 -22 -70 -50 -43 -50 17 0 93
41 117 62 21 20 21 20 42 -1 22 -22 28 -74 11 -101 -8 -12 -11 -12 -28 3 -16
15 -25 15 -75 5 -44 -9 -70 -9 -114 0 -50 10 -59 10 -75 -5 -17 -15 -20 -15
-28 -3 -6 8 -10 30 -10 48 0 50 37 78 128 97 43 10 91 21 107 25 55 15 58 13
38 -22z m-56 -171 c63 11 105 -9 96 -47 -3 -14 -15 -35 -27 -48 -19 -20 -27
-21 -69 -13 -27 5 -67 5 -94 0 -42 -8 -50 -7 -69 13 -59 62 -23 113 66 95 30
-6 67 -6 97 0z m-382 -127 c14 -27 14 -30 0 -30 -8 0 -15 6 -15 14 0 8 -3 21
-6 30 -11 28 5 17 21 -14z m273 -13 c42 11 78 10 130 -1 25 -6 38 -4 53 10 18
17 19 16 19 -12 0 -60 -77 -134 -140 -134 -63 0 -140 74 -140 134 0 28 1 29
20 11 16 -15 26 -16 58 -8z m-238 -62 c0 -8 -7 -15 -15 -15 -8 0 -15 7 -15 15
0 8 7 15 15 15 8 0 15 -7 15 -15z m118 -89 c-2 -13 -10 -21 -23 -21 -23 0 -33
34 -14 45 20 13 40 -1 37 -24z m-140 -54 c3 -18 -1 -22 -22 -22 -19 0 -26 5
-26 18 0 39 43 43 48 4z m365 -88 c37 3 73 7 80 9 14 2 67 -97 67 -125 0 -15
-8 -18 -45 -18 l-45 0 0 40 0 41 -102 -3 -103 -3 -3 -37 c-3 -37 -4 -38 -43
-38 -46 0 -49 12 -18 79 30 68 32 70 92 59 28 -6 83 -7 120 -4z m37 -109 c0
-25 -1 -25 -80 -25 -79 0 -80 0 -80 25 0 25 1 25 80 25 79 0 80 0 80 -25z" />
        <path
            d="M380 425 c0 -11 11 -15 40 -15 29 0 40 4 40 15 0 11 -11 15 -40 15
-29 0 -40 -4 -40 -15z" />
        <path
            d="M663 615 c-9 -25 5 -105 25 -139 12 -20 25 -30 38 -28 11 1 25 -7 32
-18 19 -32 -20 -94 -87 -139 -62 -41 -69 -52 -46 -74 12 -13 21 -14 45 -5 76
26 188 167 164 205 -6 10 -21 19 -33 21 -27 4 -57 65 -65 130 -5 51 -3 47 -39
56 -20 5 -29 2 -34 -9z m47 -54 c0 -16 4 -41 10 -55 6 -16 6 -26 0 -26 -10 0
-30 62 -30 93 0 9 5 17 10 17 6 0 10 -13 10 -29z m81 -199 c-22 -43 -99 -117
-131 -125 -11 -3 -20 -4 -20 -3 0 2 22 17 49 34 45 29 111 110 111 135 0 6 3
8 6 5 3 -3 -4 -24 -15 -46z" />
        <path d="M410 241 c0 -12 5 -21 10 -21 6 0 10 6 10 14 0 8 -4 18 -10 21 -5 3
-10 -3 -10 -14z" />
    </g>
</svg>